<svg width="31" height="23" viewBox="0 0 31 23" fill="none" xmlns="http://www.w3.org/2000/svg">
<path d="M0.602332 22.6458V0.791445H6.52535C8.11475 0.791445 9.26955 1.18052 9.98975 1.95866C10.7182 2.72853 11.0825 4.00337 11.0825 5.78317V6.73929C11.0825 7.76578 10.8962 8.59774 10.5237 9.23515C10.1595 9.87257 9.60068 10.2906 8.84737 10.4893C9.83247 10.7376 10.4906 11.3212 10.8217 12.2401C11.1611 13.1507 11.3308 14.2641 11.3308 15.5804C11.3308 16.9959 11.1984 18.2335 10.9335 19.2931C10.6686 20.3527 10.1884 21.1764 9.49306 21.7641C8.7977 22.3519 7.80846 22.6458 6.52535 22.6458H0.602332ZM4.87386 9.02406H5.7679C6.17352 9.02406 6.43429 8.86678 6.55018 8.55221C6.66607 8.23764 6.72402 7.86098 6.72402 7.42224V5.22439C6.72402 4.52075 6.41359 4.16893 5.79273 4.16893H4.87386V9.02406ZM5.30846 18.7964C6.44256 18.7964 7.00962 18.2583 7.00962 17.1822V14.4504C7.00962 13.8295 6.91442 13.3411 6.72402 12.9852C6.5419 12.6209 6.19422 12.4388 5.68097 12.4388H4.87386V18.7716C5.05597 18.7881 5.20084 18.7964 5.30846 18.7964ZM13.5341 22.6458V0.791445H20.1898L22.0275 14.1151L23.8528 0.791445H30.5705V22.6458H26.5722V6.90072L24.0639 22.6458H20.1401L17.4828 6.90072V22.6458H13.5341Z" fill="#057402"/>
</svg>
